<?xml version="1.0" standalone="no"?>
<!DOCTYPE svg PUBLIC "-//W3C//DTD SVG 20010904//EN"
 "http://www.w3.org/TR/2001/REC-SVG-20010904/DTD/svg10.dtd">
<svg version="1.0" xmlns="http://www.w3.org/2000/svg"
 width="110.000000pt" height="110.000000pt" viewBox="0 0 110.000000 110.000000"
 preserveAspectRatio="xMidYMid meet">
<metadata>
Created by potrace 1.14, written by Peter Selinger 2001-2017
</metadata>
<g transform="translate(0.000000,110.000000) scale(0.100000,-0.100000)"
fill="#000000" stroke="none">
<path d="M410 1085 c-197 -55 -345 -207 -396 -407 -22 -83 -14 -230 15 -313
53 -149 178 -273 336 -336 52 -20 77 -23 185 -23 104 0 135 4 185 22 151 56
274 179 336 337 20 52 23 77 23 185 0 104 -4 135 -22 185 -56 151 -181 275
-337 335 -78 30 -243 37 -325 15z m-263 -397 c11 -13 35 -45 53 -71 l32 -49
45 67 c38 57 48 66 71 63 l27 -3 0 -160 0 -160 -30 0 -30 0 -5 105 -5 105 -28
-47 c-15 -27 -34 -48 -41 -48 -8 0 -28 23 -46 50 -18 28 -36 50 -41 50 -5 0
-9 -20 -9 -45 0 -43 -1 -45 -30 -45 l-30 0 0 98 c0 54 3 102 7 105 13 14 40 7
60 -15z m513 -18 c0 -30 -1 -30 -55 -30 l-55 0 0 -135 0 -135 -30 0 -30 0 0
135 0 135 -25 0 c-21 0 -25 5 -25 30 l0 30 110 0 110 0 0 -30z m150 -7 c17
-28 20 -44 14 -62 -15 -40 -27 -34 -66 34 l-36 65 33 0 c28 0 37 -6 55 -37z
m190 31 c0 -3 -25 -50 -55 -103 -50 -89 -55 -103 -55 -159 l0 -62 -30 0 -30 0
0 71 c0 68 2 75 55 165 50 85 58 94 85 94 17 0 30 -3 30 -6z"/>
</g>
</svg>
